<?xml version="1.0" encoding="iso-8859-1"?>
<!-- Generator: Adobe Illustrator 18.1.1, SVG Export Plug-In . SVG Version: 6.00 Build 0)  -->
<svg version="1.1" id="Capa_1" xmlns="http://www.w3.org/2000/svg" xmlns:xlink="http://www.w3.org/1999/xlink" x="0px" y="0px"
	 viewBox="0 0 39.773 39.773" style="enable-background:new 0 0 39.773 39.773;" xml:space="preserve">
<g>
	<g>
		<rect x="34.414" y="12.526" width="5.359" height="2.744"/>
		<rect x="0" y="12.526" width="5.361" height="2.744"/>
		<path d="M34.333,10.148c0-3.611-2.418-6.05-5.388-6.05H10.829c-2.971,0-5.388,2.438-5.388,6.05v5.994H2.68v7.481h4.863v0.151
			h25.684v-0.151h3.865v-7.481h-2.761v-5.994H34.333z M7.481,21.816H4.552v-2.929h2.929V21.816z M9.705,21.878
			c-0.873,0-1.579-0.708-1.579-1.579c0-0.873,0.706-1.582,1.579-1.582c0.871,0,1.58,0.709,1.58,1.582
			C11.285,21.17,10.576,21.878,9.705,21.878z M16.538,22.583h-1.497v-4.655h1.497V22.583z M19.364,22.583h-1.497v-4.655h1.497
			V22.583z M22.357,22.583h-1.496v-4.655h1.496V22.583z M25.184,22.583h-1.498v-4.655h1.498V22.583z M24.434,16.142
			c0.174-1.103,1.123-1.95,2.272-1.95s2.099,0.848,2.271,1.95H24.434z M29.654,21.878c-0.871,0-1.58-0.708-1.58-1.579
			c0-0.873,0.71-1.582,1.58-1.582c0.875,0,1.58,0.709,1.58,1.582C31.234,21.17,30.529,21.878,29.654,21.878z M31.839,16.142h-1.864
			c-0.179-1.646-1.576-2.931-3.269-2.931c-1.691,0-3.089,1.286-3.269,2.931h-7.604v-3.616h-5.089v3.616h-2.81v-5.994
			c0-2.198,1.326-3.558,2.895-3.558h18.116c1.568,0,2.894,1.359,2.894,3.558V16.142z M34.828,18.887v2.93H31.9v-2.93H34.828z"/>
		<path d="M33.229,23.925l-3.281,1.287H10.164l-2.556-0.933v-0.073H2.132v11.47h5.476V32.18l2.428-0.027v-1.296h11.481
			c0.51,1.482,2.221,2.576,4.26,2.576c2.041,0,3.75-1.094,4.261-2.576h0.696v1.246h2.121v3.573h5.234v-11.47h-4.861v-0.281H33.229z"
			/>
	</g>
	<g>
	</g>
	<g>
	</g>
	<g>
	</g>
	<g>
	</g>
	<g>
	</g>
	<g>
	</g>
	<g>
	</g>
	<g>
	</g>
	<g>
	</g>
	<g>
	</g>
	<g>
	</g>
	<g>
	</g>
	<g>
	</g>
	<g>
	</g>
	<g>
	</g>
</g>
<g>
</g>
<g>
</g>
<g>
</g>
<g>
</g>
<g>
</g>
<g>
</g>
<g>
</g>
<g>
</g>
<g>
</g>
<g>
</g>
<g>
</g>
<g>
</g>
<g>
</g>
<g>
</g>
<g>
</g>
</svg>
